<?xml version="1.0" encoding="utf-8"?>
<!-- Generator: Adobe Illustrator 26.0.2, SVG Export Plug-In . SVG Version: 6.00 Build 0)  -->
<svg version="1.1" id="Layer_3" xmlns="http://www.w3.org/2000/svg" xmlns:xlink="http://www.w3.org/1999/xlink" x="0px" y="0px"
	 viewBox="0 0 64 64" style="enable-background:new 0 0 64 64;" xml:space="preserve">
<g>
	<rect x="2" y="8" style="fill:#F9D18F;" width="60" height="52"/>
	<polygon style="fill:#C7E2FB;" points="6,26 6,56 50,56 58,48 58,26 	"/>
	<path style="fill:#EBF7FE;" d="M6,26v26h42c2.209,0,4-1.791,4-4V26H6z"/>
	<rect x="2" y="8" style="fill:#F5B95B;" width="60" height="14"/>
	<path style="fill:#F9D18F;" d="M2,8v11h53c1.657,0,3-1.343,3-3V8H2z"/>
	<path style="fill:#FFFFFF;" d="M37,46H23c-3.314,0-6-2.686-6-6v0c0-3.314,2.686-6,6-6h14c3.314,0,6,2.686,6,6v0
		C43,43.314,40.314,46,37,46z"/>
	<circle style="fill:#FFFFFF;" cx="50" cy="15" r="3"/>
	<circle style="fill:#FFFFFF;" cx="38" cy="15" r="3"/>
	<circle style="fill:#FFFFFF;" cx="26" cy="15" r="3"/>
	<circle style="fill:#FFFFFF;" cx="14" cy="15" r="3"/>
	<g>
		<rect x="13" y="4" style="fill:#C18E5C;" width="2" height="11"/>
	</g>
	<g>
		<rect x="25" y="4" style="fill:#C18E5C;" width="2" height="11"/>
	</g>
	<g>
		<rect x="37" y="4" style="fill:#C18E5C;" width="2" height="11"/>
	</g>
	<g>
		<rect x="49" y="4" style="fill:#C18E5C;" width="2" height="11"/>
	</g>
	<polygon style="fill:#A1CDF9;" points="50,56 50,48 58,48 	"/>
	<path style="fill:#F5B95B;" d="M25,38l4.172-4.172c0.53-0.53,1.25-0.828,2-0.828h0C32.734,33,34,34.266,34,35.828V49h-4V38.999
		c0,0-2,2.001-2,2.001L25,38z"/>
	<path style="fill:#F9D18F;" d="M26,38l4.172-4.172c0.53-0.53,1.25-0.828,2-0.828h0C33.734,33,35,34.266,35,35.828V49h-4V38.999
		c0,0-2,2.001-2,2.001L26,38z"/>
	<g>
		<path style="fill:#FFFFFF;" d="M11,34H9v-4c0-0.552,0.447-1,1-1h4v2h-3V34z"/>
	</g>
	<g>
		<path style="fill:#FFFFFF;" d="M55,34h-2v-3h-3v-2h4c0.553,0,1,0.448,1,1V34z"/>
	</g>
	<g>
		<path style="fill:#FFFFFF;" d="M14,53h-4c-0.553,0-1-0.447-1-1v-4h2v3h3V53z"/>
	</g>
	<g>
		<rect x="53" y="36" style="fill:#FFFFFF;" width="2" height="2"/>
	</g>
	<g>
		<path style="fill:#B88B44;" d="M61,23H3c-0.552,0-1-0.448-1-1v0c0-0.552,0.448-1,1-1h58c0.552,0,1,0.448,1,1v0
			C62,22.552,61.552,23,61,23z"/>
	</g>
</g>
</svg>
