<?xml version="1.0" encoding="utf-8"?>
<!-- Generator: Adobe Illustrator 23.0.2, SVG Export Plug-In . SVG Version: 6.00 Build 0)  -->
<svg version="1.1" id="Layer_1" xmlns="http://www.w3.org/2000/svg" xmlns:xlink="http://www.w3.org/1999/xlink" x="0px" y="0px"
	 viewBox="0 0 234.8058 221.3682" enable-background="new 0 0 234.8058 221.3682" xml:space="preserve">
<g>
	<path d="M84.8487,187.273c19.418-1.9389,36.9501-1.3119,52.1346,0.5776v27.7656H195.65v-9.6664h4.3335
		c0.9082,0,1.7026-0.6123,1.9341-1.4907s-0.1582-1.8022-0.9487-2.2495c-0.0894-0.0507-1.9219-1.066-5.3188-2.6128v-25.3138h-58.6667
		v9.5385c-15.3448-1.8786-33.0153-2.4774-52.532-0.5288c-4.8864,0.488-9.3533,0.867-13.4764,1.1594l-0.6829,4.0596
		C74.7184,188.2094,79.5535,187.8018,84.8487,187.273z M166.9833,209.2829v-14.3334h5.6667v14.3334H166.9833z M175.5666,209.2829
		v-14.3334h5.6667v14.3334H175.5666z M189.8166,194.9495v14.3334H184.15v-14.3334H189.8166z"/>
	<path d="M26.5186,179.274c-1.9855-4.838,6.3688-13.6699,17.8674-23.6326l0.5735-3.4095l-1.3455-1.2214
		c-14.488,12.33-23.8368,22.3721-20.7956,29.782c1.2889,3.1408,4.678,6.3394,16.0396,7.7096l0.6595-3.9203
		C30.7479,183.5621,27.4047,181.4327,26.5186,179.274z"/>
	<path d="M66.8322,36.3955c1.4023-1.678,3.7582-3.0229,6.5038-4.5839c3.3386-1.8982,7.4941-4.2603,11.0898-7.8708
		c0.0249-0.025,0.0477-0.0519,0.0724-0.077L66.6102,8.8628C60.4077,16.9911,60.482,28.3536,66.8322,36.3955z"/>
	<path d="M92.7796,12.4804c1.812-2.9537,3.5756-5.8219,5.5527-7.7237c-8.5768-6.7116-20.8728-6.3152-29.0176,1.1542l17.8249,14.9482
		C89.3062,18.1271,91.125,15.1761,92.7796,12.4804z"/>
	<path d="M70.1863,44.1196c7.8248,7.793,22.076,6.2369,32.2609-3.3526l-8.9596-8.6864c-1.8017-1.7467-1.8466-4.6499-0.0999-6.4515
		c1.7467-1.8017,4.6499-1.8466,6.4516-0.0999l8.3602,8.1052c5.5802-9.3573,5.4938-20.2416-0.9849-26.694
		c-8.0272-7.9946-10.9341,8.3563-21.1595,18.6234C75.8298,35.8308,62.1591,36.1251,70.1863,44.1196z"/>
	<path d="M9.1588,115.6809l23.706,21.52l15.3252,13.912l-9.3672,55.6797c-1.1445,6.8081,3.4453,13.2554,10.2539,14.4004
		c0.7021,0.1182,1.3994,0.1753,2.0879,0.1753c5.9922-0.0005,11.2852-4.3228,12.3125-10.4282l10.5-62.4165
		c0.7061-4.1982-0.7734-8.4673-3.9248-11.3291l-22.4477-20.3782l-13.3563-12.125c3.5265-9.1878,9.022-18.1422,14.4457-26.1188
		L38.127,59.5521c-1.3359-2.4053-1.6553-5.1865-0.8994-7.832s2.4971-4.8384,4.9014-6.1743
		c1.5283-0.8491,3.2559-1.2979,4.9951-1.2979c3.7422,0,7.1953,2.0308,9.0107,5.2998l5.5041,9.9071
		c3.274-7.295,2.9506-15.7728-2.4659-19.9885c-6.9423-5.4054-20.1348-6.1802-30.6708,5.1664
		C14.1071,60.3195,7.4495,71.7315,0.813,93.0891C-2.0022,105.3757,2.9102,111.75,9.1588,115.6809z"/>
	<rect x="104.15" y="116.2829" width="116" height="8.6666"/>
	<path d="M116.9859,100.296l4.9935-3.8743l-1.7283-2.2275l6.8286-5.0402l20.5454,17.0034l2.5498-3.082l-21.75-18
		c-0.7061-0.585-1.7236-0.6133-2.4624-0.0684l-8.1642,6.0259l-1.5237-1.9639l-4.9619,3.8498
		C114.1425,94.5632,116.144,97.2469,116.9859,100.296z"/>
	<path d="M81.3136,116.1944l1.703,2.1949c-4.8181,4.2742-9.954,8.5533-15.1349,12.7825l2.9948,2.7188
		c4.9868-4.0757,9.9323-8.2002,14.5988-12.3326l1.5432,1.989l11.8016-9.1566l-10.5357-3.6045L81.3136,116.1944z"/>
	<path d="M225.3727,71.2842c-1.2959-0.0728-2.5986-0.1201-3.8726-0.1416l-0.0332,2c1.2476,0.0205,2.5239,0.0674,3.7935,0.1387
		L225.3727,71.2842z"/>
	<path d="M216.5152,73.1929l-0.0752-1.999c-2.3145,0.0869-4.6338,0.2637-6.8931,0.5249l0.2295,1.9863
		C211.9845,73.4503,214.252,73.2774,216.5152,73.1929z"/>
	<path d="M200.0875,75.4146l-0.4658-1.9453c-1.188,0.2847-2.3848,0.6001-3.5576,0.938l0.5537,1.9219
		C197.7618,75.9996,198.9288,75.692,200.0875,75.4146z"/>
	<path d="M186.8785,79.8492l-0.8037-1.8311c-1.6958,0.7441-3.3892,1.5601-5.0337,2.4258l0.9316,1.7695
		C183.5753,81.3702,185.2257,80.5748,186.8785,79.8492z"/>
	<path d="M170.2779,89.7935c2.0171-1.5845,4.144-3.0879,6.3213-4.4688l-1.0713-1.6895c-2.2339,1.417-4.416,2.9595-6.4854,4.585
		L170.2779,89.7935z"/>
	<path d="M155.5631,102.0689l1.6733,1.0952c0.02-0.0303,2.0435-3.0928,6.1055-7.1963l-1.4219-1.4072
		C157.7032,98.8214,155.6485,101.9385,155.5631,102.0689z"/>
	<rect x="131.3166" y="109.4495" width="41" height="3.25"/>
	<path d="M234.8058,128.9425c-1.0127-2.165-2.0996-4.2485-3.2305-6.1924l-1.7285,1.0059c1.1011,1.8926,2.1597,3.9229,3.1475,6.0342
		L234.8058,128.9425z"/>
	<path d="M228.5143,117.9605c-1.834-2.6094-3.8237-5.0049-5.9141-7.1206l-1.4229,1.4063c2.0127,2.0361,3.9307,4.3462,5.7002,6.8647
		L228.5143,117.9605z"/>
	<path d="M213.5655,103.7008c-2.7813-1.666-5.7583-3.0146-8.8481-4.0088l-0.6123,1.9043c2.9448,0.9468,5.7822,2.2324,8.4331,3.8203
		L213.5655,103.7008z"/>
	<path d="M192.4566,99.5587l0.0859-1.998c-3.8867-0.1675-7.9458,0.1099-12.0732,0.8237l0.3408,1.9707
		C184.7975,99.6666,188.7174,99.398,192.4566,99.5587z"/>
	<path d="M174.9586,99.5841c-1.5811,0.4146-3.1753,0.894-4.7388,1.4253l0.6436,1.8936c1.5186-0.5156,3.0674-0.9814,4.603-1.3843
		L174.9586,99.5841z"/>
	<path d="M167.4679,104.1588l-0.7451-1.8564c-2.9854,1.1978-4.73,2.147-4.8027,2.1865l0.9595,1.7549
		C162.8966,106.2344,164.6031,105.3077,167.4679,104.1588z"/>
	<path d="M154.0666,90.4495c-1.7489,0-3.1666,1.4178-3.1666,3.1667s1.4177,3.1667,3.1666,3.1667s3.1667-1.4178,3.1667-3.1667
		S155.8155,90.4495,154.0666,90.4495z"/>
	<path d="M170.9416,65.0329c0-0.9435-0.7648-1.7084-1.7083-1.7084s-1.7083,0.7649-1.7083,1.7084s0.7648,1.7083,1.7083,1.7083
		S170.9416,65.9764,170.9416,65.0329z"/>
	<path d="M153.9363,82.8551c0.0003,0.018,0.0053,0.0347,0.0053,0.0528c0,1.408-0.925,2.5873-2.1958,2.999
		c0.0666,1.6901,1.4478,3.0426,3.1542,3.0426c1.7489,0,3.1666-1.4177,3.1666-3.1666c0-1.1597-0.6302-2.1633-1.5602-2.7149
		c-0.2496,0.0292-0.5023,0.0482-0.7598,0.0482C155.1176,83.1162,154.5114,83.022,153.9363,82.8551z"/>
	<path d="M144.2831,59.2472c0.8284,0,1.6269-0.1219,2.3877-0.3341c-0.3444,0.8898-0.5471,1.8476-0.5864,2.8493
		c-0.6266-0.2015-1.2937-0.3129-1.9873-0.3129c-3.5837,0-6.4888,2.9051-6.4888,6.4888c0,0.1548,0.0125,0.3064,0.0231,0.4584
		c0.2361,3.3688,3.0367,6.0303,6.4656,6.0303c3.2493,0,5.9329-2.3911,6.4068-5.5081c0.0107,0.152,0.0231,0.3036,0.0231,0.4584
		c0,0.1418-0.0123,0.2806-0.0212,0.4202c0.2501,0.145,0.5074,0.2778,0.7722,0.3984c-0.3365,0.2115-0.6511,0.4528-0.9423,0.7205
		c-0.308,1.2638-0.9841,2.3801-1.911,3.2326c-0.1205,0.4942-0.1913,1.0078-0.1913,1.5391c0,1.3885,0.4399,2.6722,1.1826,3.7275
		c-1.3286,0.3763-2.3076,1.5847-2.3076,3.0338c0,1.0524,0.519,1.9782,1.3091,2.554c0.5228,0.381,1.1611,0.6127,1.8576,0.6127
		c1.6704,0,3.0242-1.2976,3.1436-2.9376c-0.9863-0.3798-1.8547-0.9918-2.5406-1.7715c1.0767,0.7945,2.4033,1.2699,3.8442,1.2699
		c3.5836,0,6.4887-2.9052,6.4887-6.4888c0-1.6419-0.6147-3.137-1.6202-4.2798c-0.0159-0.0181-0.0324-0.0355-0.0485-0.0534
		c-0.573,0.1161-1.1658,0.1779-1.7731,0.1779c-1.0715,0-2.0941-0.1994-3.0453-0.5471c0.0758,0.0019,0.1497,0.0114,0.226,0.0114
		c4.906,0,8.8831-3.9771,8.8831-8.8831c0-0.4545-0.0449-0.8975-0.1108-1.3336c-1.0544-0.0056-2.0612-0.2021-2.9983-0.5447
		c0.0758,0.0019,0.1497,0.0114,0.226,0.0114c4.906,0,8.8831-3.9771,8.8831-8.8831c0-3.8345-2.4341-7.0917-5.8378-8.3359
		c-0.9512-0.3477-1.9738-0.5471-3.0453-0.5471c-2.8478,0-5.3762,1.3453-7.0018,3.4294c0.6053,1.2006,0.9542,2.5529,0.9542,3.9893
		c0,4.4203-3.2322,8.0762-7.46,8.7587c3.3441-1.2748,5.7241-4.5027,5.7241-8.2944c0-4.906-3.9771-8.8831-8.8831-8.8831
		c-0.4856,0-0.9586,0.0494-1.423,0.1244c-4.2278,0.6824-7.46,4.3383-7.46,8.7587C135.4,55.2701,139.377,59.2472,144.2831,59.2472z"
		/>
	<ellipse transform="matrix(0.9732 -0.2298 0.2298 0.9732 -5.9704 30.3721)" cx="127.4416" cy="40.8246" rx="6.2084" ry="6.2083"/>
	<path d="M139.1916,37.5329c2.0481,0,3.7084-1.6603,3.7084-3.7084c0-2.048-1.6603-3.7083-3.7084-3.7083
		c-2.048,0-3.7083,1.6603-3.7083,3.7083C135.4833,35.8726,137.1436,37.5329,139.1916,37.5329z"/>
	<ellipse transform="matrix(0.9732 -0.2298 0.2298 0.9732 -4.0974 36.2085)" cx="153.4416" cy="35.6996" rx="4.9584" ry="4.9583"/>
	<path d="M91.5836,69.0914l0.1338-1.9951c-2.9531-0.1987-6.0068-0.2734-9.0825-0.23l0.0303,2
		C85.6856,68.8209,88.6852,68.897,91.5836,69.0914z"/>
	<path d="M99.045,69.8751c2.8452,0.4111,5.6597,0.9531,8.3647,1.6113l0.4727-1.9434c-2.7661-0.6729-5.6436-1.2271-8.5513-1.6475
		L99.045,69.8751z"/>
	<path d="M121.2467,74.0064c-1.4019-0.6084-2.8467-1.186-4.2944-1.7163l-0.6885,1.8779c1.4116,0.5171,2.8198,1.0801,4.186,1.6733
		L121.2467,74.0064z"/>
	<path d="M125.1529,78.0782c1.916,0.9956,3.7993,2.0825,5.5967,3.2314l1.0771-1.6855c-1.8481-1.1807-3.7832-2.2979-5.752-3.3203
		L125.1529,78.0782z"/>
	<path d="M135.8932,84.9322c2.1362,1.6548,4.168,3.4341,6.0391,5.2891l1.4082-1.4209c-1.9287-1.9116-4.0225-3.7451-6.2227-5.4492
		L135.8932,84.9322z"/>
	<path d="M145.3702,93.9215c2.8325,3.3242,4.1426,5.6572,4.1558,5.6807l1.7485-0.9707c-0.0562-0.1011-1.4067-2.5156-4.3818-6.0068
		L145.3702,93.9215z"/>
	<path d="M43.2462,47.5565c-3.8623,2.1455-5.2539,7.0161-3.1084,10.8784l20,36c0.9609,1.7305,2.5303,3.043,4.4033,3.6841
		l13.34,4.5638c-0.0514-1.0385,0.0127-2.247,0.2509-3.679c0.613-3.6859,2.4055-8.5045,4.9565-11.4502L72.631,83.9759
		L54.1241,50.6644C51.9786,46.8016,47.1085,45.4105,43.2462,47.5565z"/>
	<path d="M88.5675,87.3143c-5.2256-1.7866-11.6982,17.1357-6.4727,18.9233l19.7998,6.7739c1.0723,0.3667,2.1631,0.541,3.2373,0.541
		c4.1572,0,8.04-2.6133,9.4609-6.7661c1.7871-5.2256-1-10.9106-6.2256-12.6982L88.5675,87.3143z"/>
</g>
</svg>
