<?xml version="1.0" encoding="UTF-8" standalone="no"?> <svg xmlns="http://www.w3.org/2000/svg" xmlns:xlink="http://www.w3.org/1999/xlink" viewBox="0 0 64 64"><defs><style>.cls-1{fill:url(#linear-gradient);}</style><linearGradient id="linear-gradient" x1="2.5" y1="32" x2="61.5" y2="32" gradientUnits="userSpaceOnUse"><stop offset="0" stop-color="#17a6d7"/><stop offset="1" stop-color="#9d31fe"/></linearGradient></defs><g id="Layer_7" data-name="Layer 7"><path class="cls-1" d="M38.87,40.9V37.61a12.31,12.31,0,0,0,6.3-9.1c3.75,0,5.72-5.29,3.47-8.32C50.72,8.13,43.05,2.68,32.84,2.5c-1.75.25-1.49,1.39-1.76,3.61A16.91,16.91,0,0,0,23,7.89c-6.72,3.58-8.52,12.05-8.59,12.4a1.48,1.48,0,0,0,.27,1.18c-1.12,3,.77,7.05,4.14,7a12.35,12.35,0,0,0,6.29,9.1V40.9C11.94,43,2.5,50.87,2.5,60A1.5,1.5,0,0,0,4,61.5H60A1.5,1.5,0,0,0,61.5,60C61.5,50.87,52.06,43,38.87,40.9Zm6.4-15.41V21.41l.53,0C47.07,22.34,46.72,25.27,45.27,25.49ZM34.14,5.56C42,6.19,46.78,10,45.86,18.45,38,17.82,33.21,14,34.14,5.56Zm-9.71,5a14.07,14.07,0,0,1,6.69-1.43,13.58,13.58,0,0,0,2.21,6.57c-3.57,5-10.67,5.06-15.58,3.86C18.48,17.25,20.39,12.69,24.43,10.54ZM17.92,25a2.78,2.78,0,0,1-.41-2.44l1.22.23v2.7A1.27,1.27,0,0,1,17.92,25Zm3.81,2V23.13C27.2,23.47,32,22,35.42,17.88a16.92,16.92,0,0,0,6.85,3.06v6a.38.38,0,0,0,0,.15A9.31,9.31,0,0,1,36.8,35.3a1.54,1.54,0,0,0-.93,1.39V42.2a1.54,1.54,0,0,0,.83,1.34,11,11,0,0,0,1.88.37c-1.5,7-11.66,7-13.16,0a7.94,7.94,0,0,0,2-.44,1.47,1.47,0,0,0,.7-1.21s0-5.52,0-5.57a1.53,1.53,0,0,0-.64-1.22A9.51,9.51,0,0,1,21.73,27Zm.74,17.48c2.25,10.22,16.81,10.21,19.06,0,9.32,2.26,15.94,7.7,16.86,14H5.61C6.53,52.19,13.15,46.75,22.47,44.49Z"/></g></svg>